<?xml version="1.0" encoding="utf-8"?>
<!-- Generator: Adobe Illustrator 25.4.1, SVG Export Plug-In . SVG Version: 6.00 Build 0)  -->
<svg version="1.1" id="Layer_1" xmlns="http://www.w3.org/2000/svg" xmlns:xlink="http://www.w3.org/1999/xlink" x="0px" y="0px"
	 viewBox="0 0 225.27 45" style="enable-background:new 0 0 225.27 45;" xml:space="preserve">
<style type="text/css">
	.st0{fill:#FFFFFF;}
</style>
<g>
	<g>
		<rect class="st0" width="30.5" height="6.58"/>
		<rect y="12.46" class="st0" width="30.5" height="6.58"/>
		
			<rect x="-6.23" y="31.3" transform="matrix(6.123234e-17 -1 1 6.123234e-17 -31.2951 37.8747)" class="st0" width="19.04" height="6.58"/>
		<circle class="st0" cx="21.73" cy="35.03" r="9.97"/>
	</g>
	<g>
		<path class="st0" d="M131.14,20.51v14h-6.69V21.89c0-4.08-1.95-6.17-5.18-6.17c-3.51,0-5.41,2.42-5.41,6.41v12.39h-6.65V10.69h6.2
			l0.35,2.75c1.28-2.04,3.75-3.42,7.46-3.42C127.53,10.02,131.14,14.2,131.14,20.51z"/>
		<path class="st0" d="M102.55,22.89c0,1.99-0.34,3.74-1.01,5.26c-0.67,1.52-1.58,2.8-2.74,3.84c-1.15,1.04-2.47,1.83-3.96,2.38
			c-1.49,0.54-3.05,0.82-4.68,0.82c-1.63,0-3.19-0.27-4.68-0.82c-1.49-0.54-2.81-1.34-3.96-2.38c-1.15-1.04-2.06-2.32-2.74-3.84
			c-0.67-1.52-1.01-3.27-1.01-5.26v-0.58c0-1.95,0.34-3.69,1.01-5.21c0.67-1.52,1.58-2.81,2.74-3.87c1.15-1.06,2.47-1.86,3.96-2.4
			c1.49-0.54,3.05-0.82,4.68-0.82c1.63,0,3.19,0.27,4.68,0.82c1.49,0.54,2.81,1.34,3.96,2.4c1.15,1.06,2.06,2.35,2.74,3.87
			c0.67,1.52,1.01,3.26,1.01,5.21V22.89z M90.16,29.42c0.86,0,1.68-0.14,2.45-0.43s1.44-0.7,2.02-1.25
			c0.58-0.54,1.03-1.21,1.37-1.99c0.34-0.78,0.5-1.67,0.5-2.67v-0.96c0-0.99-0.17-1.88-0.5-2.67c-0.34-0.78-0.79-1.45-1.37-1.99
			c-0.58-0.54-1.25-0.96-2.02-1.25c-0.77-0.29-1.58-0.43-2.45-0.43c-0.86,0-1.68,0.14-2.45,0.43c-0.77,0.29-1.44,0.7-2.02,1.25
			c-0.58,0.54-1.03,1.21-1.37,1.99c-0.34,0.78-0.5,1.67-0.5,2.67v0.96c0,0.99,0.17,1.88,0.5,2.67c0.34,0.78,0.79,1.45,1.37,1.99
			c0.58,0.54,1.25,0.96,2.02,1.25S89.29,29.42,90.16,29.42z"/>
		<path class="st0" d="M134.69,10.69h6.06v-4.9c0-1.38,0.46-2.54,1.39-3.48c0.93-0.94,2.08-1.42,3.46-1.42h9.7v5.76h-7.2
			c-0.86,0-1.3,0.48-1.3,1.44v2.59h8.5v5.76h-8.5v18.06h-6.05V16.45h-6.06V10.69z"/>
		<path class="st0" d="M165.15,24.57c0.03,0.7,0.2,1.35,0.5,1.94c0.3,0.59,0.72,1.1,1.25,1.54c0.53,0.43,1.14,0.77,1.83,1.01
			c0.69,0.24,1.42,0.36,2.18,0.36c1.51,0,2.66-0.26,3.46-0.79c0.8-0.53,1.38-1.16,1.73-1.9l5.19,2.88c-0.29,0.61-0.69,1.24-1.2,1.9
			c-0.51,0.66-1.18,1.26-1.99,1.8c-0.82,0.54-1.81,0.99-2.98,1.34c-1.17,0.35-2.54,0.53-4.11,0.53c-1.79,0-3.43-0.29-4.9-0.86
			c-1.47-0.58-2.75-1.41-3.82-2.5c-1.07-1.09-1.91-2.42-2.5-3.99c-0.59-1.57-0.89-3.35-0.89-5.33v-0.29c0-1.83,0.31-3.49,0.94-4.99
			c0.63-1.5,1.48-2.79,2.57-3.84c1.09-1.06,2.36-1.88,3.82-2.47c1.46-0.59,3.02-0.89,4.68-0.89c2.05,0,3.81,0.36,5.28,1.08
			c1.47,0.72,2.69,1.63,3.65,2.74c0.96,1.1,1.66,2.32,2.11,3.65c0.45,1.33,0.67,2.62,0.67,3.87v3.22H165.15z M170.86,15.49
			c-1.54,0-2.79,0.39-3.75,1.18c-0.96,0.78-1.58,1.69-1.87,2.71h11.24c-0.19-1.12-0.79-2.05-1.8-2.79
			C173.67,15.86,172.4,15.49,170.86,15.49z"/>
		<path class="st0" d="M188.05,10.69h10.09v3.46H199c0.45-1.31,1.21-2.33,2.28-3.05c1.07-0.72,2.36-1.08,3.87-1.08
			c2.37,0,4.27,0.74,5.72,2.23c1.44,1.49,2.16,3.75,2.16,6.8v1.06l-6.24,0.58v-0.67c0-1.31-0.34-2.36-1.01-3.15
			c-0.67-0.78-1.68-1.18-3.03-1.18c-1.34,0-2.4,0.46-3.17,1.39c-0.77,0.93-1.15,2.26-1.15,3.99v7.68h5.47v5.76h-16.43v-5.76h4.9
			V16.45h-4.32V10.69z"/>
		<path class="st0" d="M225.27,30.62c0,0.64-0.12,1.24-0.36,1.8c-0.24,0.56-0.57,1.04-0.98,1.44c-0.42,0.4-0.9,0.72-1.47,0.96
			c-0.56,0.24-1.14,0.36-1.75,0.36c-0.64,0-1.23-0.12-1.78-0.36c-0.55-0.24-1.03-0.56-1.44-0.96c-0.42-0.4-0.74-0.88-0.98-1.44
			c-0.24-0.56-0.36-1.16-0.36-1.8c0-0.64,0.12-1.24,0.36-1.8c0.24-0.56,0.57-1.04,0.98-1.44c0.42-0.4,0.9-0.72,1.44-0.96
			c0.54-0.24,1.14-0.36,1.78-0.36c0.61,0,1.19,0.12,1.75,0.36c0.56,0.24,1.05,0.56,1.47,0.96c0.42,0.4,0.74,0.88,0.98,1.44
			C225.15,29.38,225.27,29.98,225.27,30.62z"/>
		<path class="st0" d="M61.66,15.6c-3.4,0-5.58,2.7-5.58,6.98c0,4.7,2.33,6.93,5.4,6.93c2.6,0,4.33-1.49,5.12-4.33h6.93
			c-1.16,6.28-5.77,10-11.86,10c-7.3,0-12.23-5.02-12.23-12.61c0-7.54,4.93-12.56,12.28-12.56c6.14,0,10.75,3.54,11.81,9.86H66.6
			C65.99,17.09,64.08,15.6,61.66,15.6z"/>
	</g>
</g>
</svg>
