<?xml version="1.0" encoding="utf-8"?>
<!-- Generator: Adobe Illustrator 25.4.1, SVG Export Plug-In . SVG Version: 6.00 Build 0)  -->
<svg version="1.1" id="Layer_1" xmlns="http://www.w3.org/2000/svg" xmlns:xlink="http://www.w3.org/1999/xlink" x="0px" y="0px"
	 viewBox="0 0 306.28 45.89" style="enable-background:new 0 0 306.28 45.89;" xml:space="preserve">
<style type="text/css">
	.st0{fill:#FFFFFF;}
</style>
<path class="st0" d="M25.17,39.27c0.05-0.26,0.11-0.42,0.11-0.58c0-0.37-0.16-0.58-0.37-1.17c-0.16-0.42-0.27-0.79-0.27-1.17
	c0-0.32,0.05-0.58,0.27-1.01c0.16-0.32,0.48-0.42,0.79-0.42c0.27,0,0.53,0.05,0.53,0.05c0-0.05-0.05-0.11-0.11-0.16
	c-0.42-0.53-0.53-1.06-1.11-1.11c-0.32-0.05-0.58-0.11-0.95-0.11c-0.27,0-0.53,0.05-0.95,0.16c-0.48,0.16-0.9,0.32-1.27,0.32
	c-0.37,0-0.69-0.16-1.01-0.69c-0.16-0.27-0.26-0.53-0.26-0.74c0-0.58,0.53-0.95,1.22-0.95c0.48,0,0.69-0.11,0.69-0.26
	c0-0.21-0.32-0.53-0.79-0.85c-0.48-0.32-0.69-0.37-0.9-0.37s-0.42,0.05-0.85,0.05c-0.79,0-0.69-0.21-1.17-0.21h-0.32
	c-0.64,0.11-0.64,0.53-1.32,0.53c-0.21,0-0.42,0-0.74-0.11c-0.69-0.21-0.95-0.64-0.95-1.11c0-0.53,0.32-1.06,0.74-1.27
	c0.21-0.11,0.42-0.16,0.58-0.16c0.32,0,0.58,0.16,0.85,0.16c0.11,0,0.21-0.05,0.37-0.11c0.26-0.11,0.37-0.21,0.37-0.37
	c0-0.21-0.32-0.48-1.01-0.9c-1.17-0.69-1.48-1.01-2.81-1.43c-0.9-0.27-1.8-0.48-2.76-0.48c-0.48,0-0.95,0.05-1.38,0.16
	c-1.17,0.32-1.91,1.01-2.92,1.01c-0.16,0-0.26-0.05-0.42-0.05c-0.74-0.11-1.75-0.32-3.18-1.54c-0.53-0.48-0.9-0.95-1.11-1.32
	c-0.11-0.27-0.16-0.42-0.16-0.53c0-0.16,0.05-0.21,0.21-0.21c0.16,0,0.37,0.05,0.64,0.16c0.21,0.05,0.37,0.11,0.58,0.11
	c0.79,0,1.8-0.42,2.91-0.42c0.16,0,0.37,0.05,0.53,0.05c1.64,0.21,1.85,0.9,1.85,0.9s1.38,0.74,2.38,0.85h0.27
	c0.53,0,0.74-0.16,0.74-0.32c0-0.11-0.05-0.16-0.16-0.21c-0.32-0.21-1.54-1.54-2.6-1.85c-1.06-0.32-1.11-0.21-2.6-0.42
	c-1.32-0.21-1.59-0.64-2.28-0.64c-0.32,0.05-0.64,0.05-0.95,0.05s-0.58,0-1.01,0.05c-0.53,0-0.53-0.74-0.69-1.22
	c-0.16-0.53-0.64-0.11-1.7-1.96C0.16,16.48,0,15.21,0,14.2c0-0.9,0.16-1.54,0.27-1.54c0.21,0.32,0.16,1.01,0.58,1.54
	s0.53,0.53,1.17,0.85c0.05,0.05,0.11,0.05,0.16,0.05c0.53,0.26,0.74,0.37,1.59,0.58c0.95,0.21,0.53,0.37,1.22,1.43
	s1.06,1.85,1.59,2.49c0.27,0.32,0.69,0.37,1.17,0.37c0.42,0,0.85-0.05,1.11-0.05c0.11,0,0.11-0.05,0.11-0.11
	c0-0.21-0.58-0.74-0.95-1.06c-0.53-0.42-0.32-1.22-1.33-2.17c-1.01-0.95-1.96-2.91-1.96-2.91s-0.95-0.21-1.59-0.58
	c-0.64-0.37-0.37-0.85-0.9-1.96c-0.16-0.37-0.27-0.69-0.27-1.11c0-0.85,0.37-1.85,0.79-3.18C3.02,5.99,3.5,5.46,3.97,4.93
	c0.32-0.32,0.64-0.48,0.79-0.48c0.16,0,0.21,0.11,0.21,0.42C4.93,5.19,4.88,5.51,4.88,5.83c0,0.64,0.16,1.27,0.42,1.85
	c0.11,0.27,0.16,0.53,0.16,0.85c0,0.69-0.21,1.54-0.37,2.76c-0.11,0.69-0.16,0.9-0.16,1.06c0,0.11,0,0.16,0.11,0.32
	c0.11,0.16,0.32,0.48,0.58,1.11c0.85,1.96,1.27,1.7,1.27,1.8c0,0.05,0.16-0.64,0.16-1.64c0-0.53-0.05-1.06-0.16-1.7
	c-0.11-0.42-0.11-0.85-0.11-1.22c0-1.11,0.27-1.85,0.27-2.28C6.94,8.48,6.57,7.9,6.57,7.37c0-0.53,0.05-1.11,0.48-1.32
	C7.1,5.99,7.15,5.94,7.15,5.83c0-0.32-0.26-0.95-0.26-1.22c0-0.11,0.05-0.16,0.16-0.16c0.48,0,0.21-0.79,0.85-1.54
	c0.64-0.74,1.38-1.64,2.91-1.85C12.14,0.85,14.57,0,15,0c0,0-0.05,0.05-0.16,0.11c-0.85,0.58-1.64,1.91-1.96,2.7
	c-0.32,0.79-0.53,1.17-1.17,1.85c-0.64,0.69-1.11,0.85-1.22,1.64c0,0.16,0.05,0.16,0.05,0.26s-0.16,0.32-1.11,1.22
	C7.84,9.33,8.11,9.75,7.9,10.71c-0.05,0.32-0.11,0.74-0.11,1.11c0,0.74,0.11,1.43,0.32,1.75c0.05,0.11,0.05,0.16,0.05,0.21
	c0,0.21-0.21,0.42-0.21,1.06c0,0.27,0,0.64,0.16,1.11c0.53,1.96,1.06,2.01,2.28,3.66c1.22,1.64,2.49,2.17,3.23,2.81
	c0.74,0.64,0.79,0.69,1.11,1.22c0.42,0.74,1.17,0.95,2.07,1.43c0.9,0.48,0.64,0.95,2.07,1.27c1.43,0.32,1.75,1.43,2.7,1.96
	c0.95,0.53,0.74,1.01,1.75,1.54c1.06,0.58,1.43,1.54,1.96,2.07c0.37,0.58,1.06,0.85,1.59,1.96c0.37,0.79,0.42,1.22,0.42,2.12v1.43
	c-0.05,1.96-0.21,1.64-0.85,2.28c-0.21,0.21-0.27,0.37-0.27,0.48c0,0.11,0.05,0.16,0.05,0.26c0,0.11-0.05,0.26-0.32,0.53
	c-0.74,0.69-2.01,0.79-3.02,0.9h-0.32c-1.06,0-2.54-0.48-2.54-1.7c0-1.38,0.48-2.38,1.96-2.38s2.07,2.23,1.96,2.12
	C23.85,39.8,24.91,40.12,25.17,39.27z M31.64,23.05c0.32,0,0.58,0.11,1.01,0.69c0.32,0.42,1.06,0.74,1.48,1.17
	c0.26,0.32,0.37,0.53,0.37,0.74c0,0.05,0,0.74-0.42,1.06c-0.05,0-0.9,0.79-0.9,0.9c0.42,0,1.85-0.27,2.49-0.27
	c0.37,0,0.85,0.42,0.85,0.48c0,0-0.48,0.37-0.48,0.58c0,0.05,0,0.11,0.05,0.11h0.32c0.37,0,0.79,0.05,1.01,0.42
	c0.64,1.06,1.32,2.54,1.32,4.45c0,0.53-1.32,1.8-1.32,2.28c0,0.21,0.74,0.48,0.74,0.85c0,0.58-0.79,2.07-1.27,2.49
	c-1.01,0.9-3.44,0.95-3.44,1.48c0,0.05,0.11,0.11,0.21,0.11c1.06,0,1.85,0.05,1.85,0.21s-0.37,0.58-0.69,0.74
	c-1.17,1.06-1.85,2.28-2.91,2.28c-1.43,0-2.97,1.59-3.71,1.59H27.4c-0.48,0-1.91,0.48-2.6,0.48c-0.85,0-2.38-0.26-2.7-0.26
	c-3.34,0-7.05-2.17-7.95-3.02c-1.7-1.43-2.6-1.91-2.6-3.02c0-0.58-1.01-0.74-1.01-2.01c0-0.64,2.6-3.34,3.87-3.34
	c0.69,0,2.12,5.41,2.12,5.03c0,0.16-0.32,0.37-0.32,0.69c0,0.11,0.05,0.21,0.11,0.32c0.16,0.32,1.17,0.26,1.43,0.48
	c0.69,0.58,0.42,1.96,1.33,1.96c0.32,0,0.9-0.53,0.95-0.53c1.43,0.42,2.12,1.22,4.29,1.22c1.33,0,2.86-0.85,3.76-2.23
	c0.21-0.37,0.53-1.43,0.74-1.91c0.37-0.74,1.11-0.85,1.11-2.01c0-0.74-0.64-0.9-0.64-1.85c0-0.27,1.54-2.81,1.54-3.13
	c0-0.11-0.05-0.21-0.16-0.21c-0.74,0-0.95,0.9-1.8,0.9c-1.06,0-1.7-1.27-3.02-2.33c-0.79-0.64-1.8-1.54-1.8-1.54
	c0,0.05-1.06-0.53-1.85-1.43c-0.79-0.9-0.32-1.27-1.22-1.27s-3.13-2.28-4.45-3.07c-1.59-0.95-1.17-1.38-2.07-2.01
	c-0.64-0.48-1.06-0.74-1.06-1.06c0.11-0.64,1.32-1.17,1.32-1.43c0-0.16-0.21-0.16-0.32-0.16c-0.69,0-2.28-0.26-2.54-0.26
	c-0.37,0-1.43-2.33-1.43-4.08c0-0.42,0.37-0.64,0.37-1.17c0-0.37-0.53-0.79-0.53-1.01c0-1.64,1.32-4.35,2.33-4.35
	c0.32,0,0.58,0.64,0.79,0.64c0.11,0,0.16-0.21,0.16-0.48c0-0.32-0.05-0.74-0.05-0.85c0-0.64,2.97-3.02,4.03-3.07
	c1.17-0.05,2.38-0.85,2.97-1.06c0.58-0.16,2.6-0.32,4.08-0.32c4.45,0,7,1.38,7.95,2.17c1.7,1.48,2.7,2.07,2.97,3.87
	c0.16,1.22,0.9,1.11,0.9,2.38c0,0.58-2.17,2.6-3.5,2.6c-0.69,0-0.9-0.48-0.9-1.06c0-1.48-0.05-2.07-0.48-2.81
	c-0.05-0.05-0.05-0.21-0.05-1.11c0-0.32-0.05-0.64-0.16-0.79c-0.16-0.32-0.79-0.27-1.06-0.48c-2.07-1.38-1.59-2.44-2.54-2.44
	c-0.26,0-0.79,0.48-1.06,0.48c-1.27,0-2.01-0.27-2.49-0.27c-1.7,0-4.4,1.27-5.14,2.86c-0.26,0.74-0.11,1.17-0.53,1.32
	c-0.53,0.21-1.06,1.59-1.64,1.8c-0.37,0.11-0.74,1.17-0.74,1.38c0,0.11,0.05,0.11,0.16,0.11c1.11,0,1.27-1.32,2.38-1.32
	c0.27,0,0.48,0.48,0.48,1.01c0,0,0.64,1.27,1.38,1.96c1.91,1.8,3.13,2.54,3.13,3.07c0,0.85-1.75,1.22-1.75,1.48
	c0,0.05,0.21,0.32,0.48,0.32c0.48,0,1.38-0.11,1.48-0.11c0.95,0,0.74-0.05,1.38-0.05c0.79,0,1.27,0.27,1.27,0.69
	c0,0.11,0,0.16,0.05,0.16c0.05,0,0.16-0.05,0.32-0.05c0.16,0,0.37,0.05,0.69,0.27c0.85,0.64,1.64,0.85,2.17,1.38
	c0.53,0.53,1.17,1.64,1.17,1.64C31.21,23.11,31.43,23.05,31.64,23.05z M15.1,39.27c0.27,0,0.53-0.37,0.53-0.58
	c0-0.26-0.16-0.48-0.32-0.48c-0.27,0-0.53,0.42-0.53,0.58C14.79,39.06,14.94,39.27,15.1,39.27z M20.99,17.7
	c0,0.27,0.26,0.42,0.53,0.42c0.16,0,0.48-0.21,0.48-0.37c0-0.21-0.27-0.64-0.58-0.64C21.2,17.12,20.99,17.59,20.99,17.7z
	 M27.77,30.42c0,0.16,0.16,0.21,0.42,0.21c0.69,0,1.01-0.69,1.01-1.06c0-0.11-0.05-0.16-0.16-0.16c-0.16,0-0.48,0-0.85,0.32
	C27.82,29.94,27.77,30.31,27.77,30.42z M43.62,41.71h-0.9c-0.32,0-0.69-0.26-0.69-0.74c0-0.58,0.74-1.96,0.74-2.92
	c0-0.9,0.95-1.64,1.06-1.64c0.27,0,0.74,0.37,1.06,0.37c0.11,0,0.48-0.58,0.48-0.58c0-0.53-2.07-0.11-2.07-2.12
	c0-0.58,0.11-0.64,0.11-0.9c0-0.79-0.32-1.59-0.32-1.8v-1.32c0-0.27,0.11-1.06,0.11-1.59c0-0.64-0.11-1.01-0.11-2.01
	c0.05-1.06-0.05-2.23,0.42-2.81c0.48-0.53,1.06-0.58,1.06-1.11c0-0.11-0.16-0.16-0.27-0.16c-0.16,0-0.37,0.11-0.58,0.11
	c-0.64,0-0.74-1.06-0.74-1.43c0-0.26,0.05-0.58,0.05-1.01c0-2.17,0.42-2.28,0.42-2.76c0-0.58-0.26-1.11-0.26-1.38
	c0-0.95-0.11-1.27-0.11-1.96c0-0.26,0.05-0.64,0.05-0.95c0-2.49-1.22-3.5-1.22-4.08c0-0.53,0.58-0.64,1.06-0.64
	c0.85,0,1.43,0.42,2.17,0.42c0.42,0,0.9,0.16,1.38,0.16c0.16,0,1.22-0.37,2.01-0.37c0.11,0,0.27,0.05,0.37,0.05
	c0.11,0.05,0.27,0.05,0.37,0.05c0.53,0,0.79-0.26,1.43-0.26c0.37,0,0.79,0.05,0.79,0.53c0,0.42-0.53,0.79-0.69,3.02
	c0,0.27,0.05,0.69,0.05,0.95c0,1.22-1.75,0.64-1.75,1.27c1.54,0.69,1.59,1.48,1.64,2.28c0,0.85,0.05,1.48,0.05,1.64
	c0,0.42-0.05,1.01-0.53,1.22l-1.48,0.79c-0.21,0.11-0.32,0.74-0.32,1.01c0.37,0,1.17-0.42,1.54-0.42c0.42,0,0.58-0.16,0.58,1.85
	c0,0.21,0.05,0.26,0.16,0.26c0.21,0,2.76-2.97,3.44-3.44c0.27-0.27,1.01-0.32,1.06-1.32c0-0.21,1.22-1.38,2.01-2.54
	c0.32-0.48,1.8-1.38,1.8-1.96c0.74-1.32,2.28-1.64,2.49-2.81c0.05-0.32,0.69-0.9,0.74-1.06c0.27-0.9,0.48-1.22,1.17-1.22
	c0.42,0,2.91,0.21,3.18,0.21c0.11,0,1.32-0.26,1.54-0.26c0.53,0,0.53,0.26,0.53,0.53c0,0.58-2.28,1.64-3.02,2.54
	c-0.16,0.16-0.85,0.16-0.85,0.21c0,0.21-0.27,0.58-0.32,0.64c-1.17,1.54-2.76,1.38-2.76,1.75c0.16,0.26,0.58,0.42,0.58,0.58
	c0,0.11-2.33,2.07-3.44,3.5c-0.85,1.06-1.85,2.12-1.85,2.54c0,0.21,1.75,2.65,1.75,3.07c0,0.53-0.79,1.11-0.79,1.48
	c0,0.21,0.48,0.37,0.69,0.37c0.64,0,0.9-0.26,1.33-0.26c0.16,0,0.64,0.58,0.64,0.74c0,0.32-1.01,0.32-1.01,0.69s0.58,0.64,0.64,0.64
	c0.16,0,0.79-0.11,1.01-0.11c0.16,0,0.37,0.05,0.58,0.32c0.48,0.64,2.6,3.23,2.6,3.92c0,1.17,0.64,0.69,1.01,1.27
	c1.38,1.64,2.49,2.86,2.49,3.29c0,0.58-1.01,0.42-1.01,1.01c0,0.11,0.58,0.26,0.74,0.26h1.32c0.32,0,0.74,1.59,3.87,2.6
	c1.59,0.53,1.8,0.53,1.8,1.01c0,0.32-0.58,0.74-1.48,0.74c-1.01,0-3.82,0.16-5.14,0.16c-0.53,0-1.01-0.05-1.32-0.11
	c-3.23-0.64-4.82-2.28-6.15-3.82c-0.69-0.74-2.01-1.91-2.01-2.54c0-0.58,0.48-0.48,0.48-1.06c0-0.11-0.05-0.11-0.16-0.11
	c-0.16,0-0.48,0.05-0.74,0.05c-0.37,0-0.79-0.11-1.06-0.58c-0.58-1.27-2.23-3.39-2.28-3.82c0-0.21,0.11-0.64,0.11-0.79
	c0-0.48-0.85-0.48-1.22-0.69c-0.42-0.37-1.43-2.75-2.17-3.02c-0.32,0-0.69,0-0.69,0.79c0,1.22-0.79,1.38-0.79,1.85
	c0,0.69,0.85,0.37,0.85,1.7c0,2.23-0.48,3.82-1.27,3.82c0,0.11-0.95,1.06-0.95,1.27c1.01,0,1.01,0.16,1.7,0.16
	c0.16,0,0.27,0.21,0.27,0.42c0,0.53-1.48,0.74-1.48,1.22c0.05,0.05,0.11,0.11,0.16,0.11c0.21,0,0.74-0.05,1.01-0.05
	c0.48,0,0.53,0.37,0.53,0.9c0,0.16-0.05,0.37-0.05,0.58c0,0.95,1.01,2.23,1.01,3.23c0,0.37-0.37,0.48-0.85,0.48
	c-1.17,0-2.01-0.27-2.49-0.27c-0.37,0-1.11-0.42-1.75-0.42C46.37,41.12,44.73,41.71,43.62,41.71z M44.04,19.82
	c0,0.21,0.16,0.32,0.42,0.32c0.37,0,0.58-0.32,0.58-0.53s-0.11-0.32-0.32-0.32c-0.11,0-0.27,0.05-0.37,0.11
	C44.1,19.55,44.04,19.71,44.04,19.82z M48.97,38.21c0,0.16,0.26,0.32,0.48,0.32c0.37,0,0.58-0.53,0.58-0.74
	c0-0.11-0.05-0.27-0.21-0.27c-0.11,0-0.27,0.05-0.48,0.21C49.02,37.94,48.97,38.05,48.97,38.21z M60.89,29.25
	c0,0.21,0.16,0.32,0.32,0.32c0.37,0,0.58-0.53,0.58-0.64c0-0.11-0.05-0.21-0.21-0.21c-0.11,0-0.16,0.05-0.37,0.11
	C61,28.93,60.89,29.09,60.89,29.25z M77.96,41.71h-0.9c-0.32,0-0.69-0.26-0.69-0.74c0-0.58,0.74-1.96,0.74-2.92
	c0-0.9,0.95-1.64,1.06-1.64c0.26,0,0.74,0.37,1.06,0.37c0.11,0,0.48-0.58,0.48-0.58c0-0.53-2.07-0.11-2.07-2.12
	c0-0.58,0.11-0.64,0.11-0.9c0-0.79-0.32-1.59-0.32-1.8v-1.32c0-0.27,0.11-1.06,0.11-1.59c0-0.64-0.11-1.01-0.11-2.01
	c0.05-1.06-0.05-2.23,0.42-2.81c0.48-0.53,1.06-0.58,1.06-1.11c0-0.11-0.16-0.16-0.27-0.16c-0.16,0-0.37,0.11-0.58,0.11
	c-0.64,0-0.74-1.06-0.74-1.43c0-0.26,0.05-0.58,0.05-1.01c0-2.17,0.42-2.28,0.42-2.76c0-0.58-0.27-1.11-0.27-1.38
	c0-0.95-0.11-1.27-0.11-1.96c0-0.26,0.05-0.64,0.05-0.95c0-2.49-1.22-3.5-1.22-4.08c0-0.53,0.58-0.64,1.06-0.64
	c0.85,0,1.43,0.42,2.17,0.42c0.16,0,1.59,0.42,1.85,0.42c0.05,0,0.11-0.05,0.16-0.11c0.58-0.32,1.43-0.79,3.5-0.79
	c0.32,0,1.11,0,1.11,0.74c0,0.11-0.42,1.54-1.06,1.54c-0.32,0-0.69-0.05-1.01-0.05c-0.69,0-0.9,0.32-0.95,0.64
	c0,0,0.16,0.32,0.21,0.32c0.11,0,0.37-0.05,0.64-0.05c0.64,0,1.17,0,1.17,0.48c0,0.37-2.38,0.21-2.38,0.9
	c0,0.05,0.11,0.32,0.27,0.32h0.95c0.74,0,1.22,0.05,1.22,0.42c0,0.21-0.21,0.64-0.21,0.95c0,0.74,0.32,1.38,0.32,1.54
	c0,0.16-1.85,1.01-1.85,1.75c0,0.11,0.05,0.16,0.21,0.16c0.21,0,0.58-0.21,0.79-0.21c0.32,0,0.69,1.54,0.69,1.7
	c0,0.69-0.16,0.79-0.16,1.06s0.26,1.01,0.26,1.22c0,0.74-0.74,0.9-0.74,1.27c0,0.74,0.69,0.79,0.69,1.91c0,1.32-0.32,1.59-0.32,1.96
	c0,0.64,0.32,1.06,0.32,1.43c0-0.16-0.21,1.22-0.79,1.22c-0.05,0-0.16-0.05-0.21-0.05c-0.42,0-1.01,2.23-1.48,2.23
	c0.69,0,1.96-1.06,2.23-1.06c0.21,0,0.37,0.16,0.37,0.37c0,0.95-1.85,0.95-1.85,1.38c0,0.11,0.11,0.21,0.48,0.21
	s0.64-0.05,0.79-0.05c0.53,0,0.58,0.85,0.58,2.28c-0.11,1.17-0.64,1.11-0.64,1.59c0,0.37,0.58,0.95,0.64,1.48
	c0,1.27,0.64,2.12,0.74,2.44c0.16,0.32,0.21,0.58,0.21,0.79c0,0.58-0.9,0.64-1.7,0.64c-1.54,0-2.49-0.16-3.07-0.26
	C80.67,41.39,78.97,41.71,77.96,41.71z M78.39,19.82c0,0.21,0.16,0.32,0.42,0.32c0.37,0,0.58-0.32,0.58-0.53s-0.11-0.32-0.32-0.32
	c-0.11,0-0.27,0.05-0.37,0.11C78.44,19.55,78.39,19.71,78.39,19.82z M82.36,37.36c0,0.16,0.16,0.32,0.26,0.32
	c0.32,0,0.64-0.42,0.64-0.69c0-0.16-0.16-0.37-0.32-0.37c-0.11,0-0.16,0.05-0.26,0.21C82.52,36.99,82.36,37.2,82.36,37.36z
	 M92.17,41.71h-0.9c-0.32,0-0.69-0.26-0.69-0.74c0-0.58,0.74-1.96,0.74-2.92c0-0.9,0.95-1.64,1.06-1.64c0.27,0,0.74,0.37,1.06,0.37
	c0.11,0,0.48-0.58,0.48-0.58c0-0.53-2.07-0.11-2.07-2.12c0-0.58,0.11-0.64,0.11-0.9c0-0.79-0.32-1.59-0.32-1.8v-1.32
	c0-0.27,0.11-1.06,0.11-1.59c0-0.64-0.11-1.01-0.11-2.01c0.05-1.06-0.05-2.23,0.42-2.81c0.48-0.53,1.06-0.58,1.06-1.11
	c0-0.11-0.16-0.16-0.27-0.16c-0.16,0-0.37,0.11-0.58,0.11c-0.64,0-0.74-1.06-0.74-1.43c0-0.26,0.05-0.58,0.05-1.01
	c0-2.17,0.42-2.28,0.42-2.76c0-0.58-0.26-1.11-0.26-1.38c0-0.95-0.11-1.27-0.11-1.96c0-0.26,0.05-0.64,0.05-0.95
	c0-2.49-1.22-3.5-1.22-4.08c0-0.53,0.58-0.64,1.06-0.64c0.85,0,1.43,0.42,2.17,0.42c0.42,0,0.85,0.16,1.33,0.16
	c0.85,0,3.34-0.58,4.56-0.58c0.32,0,0.53,0.16,0.53,0.48c0,0.58-0.64,0.85-1.06,3.13c-0.11,0.42-0.64,0.42-0.64,0.53
	c0,0.42,0.9,0.42,0.9,1.38c0,1.96-0.21,2.33-0.95,2.33c-0.21,0-0.32,0-0.32,0.27c0,0.69,1.27,0.9,1.27,2.01c0,0.79,0,2.86-0.58,2.86
	s-0.11,0.85-0.79,1.17c0,0-1.17,1.06-1.17,1.38c0,0.16,0.42,0.48,0.48,0.48c0.32,0,1.06-0.69,1.8-0.69c0.05,0,0.11,0.37,0.11,0.48
	c0,0.53-1.48,1.06-1.48,1.85c0,0.16,0,0.26,0.05,0.26c0.26-0.05,0.53-0.26,0.79-0.26c0.42,0,0.53,0.16,0.53,0.69
	c0,1.38-0.32,2.17-0.32,2.7c0,0.48,0.79,0.9,0.79,1.38c0,0.32-0.21,0.95-0.21,1.8c-0.11,0.42-0.32,0.58-0.64,0.58
	c-0.42,0-1.27-0.32-1.59-0.32c-0.11,0-0.21,0.05-0.21,0.11c0,0.79,2.7,0.69,2.7,2.12c0,0.48-0.26,1.06-0.26,1.64
	c0,0.16,0.42,1.06,0.58,1.54c0.11,0.42,0.85,0.58,4.29,0.58c0.42,0,1.06-0.26,1.32-0.26h1.32c2.49,0,3.92-2.01,4.35-2.01
	c0.26,0,0.53,0.11,0.53,0.37c0,0.21-0.05,0.48-0.32,0.85c-0.48,0.9-0.95,1.8-0.95,2.81c0,0.37,0.05,0.74,0.05,1.01
	c0,0.21-0.16,0.37-0.37,0.37c-1.11,0-2.97-0.42-4.4-0.42c-1.91,0-2.81,0.26-3.23,0.26c-0.64,0-0.74-0.26-1.17-0.26
	c-0.48,0-1.06,0.21-1.27,0.21c-0.16,0-2.28-0.26-2.81-0.26c-0.27,0-0.79-0.16-1.17-0.16C95.72,41.28,93.28,41.71,92.17,41.71z
	 M92.59,19.82c0,0.21,0.16,0.32,0.42,0.32c0.37,0,0.58-0.32,0.58-0.53s-0.11-0.32-0.32-0.32c-0.11,0-0.27,0.05-0.37,0.11
	C92.64,19.55,92.59,19.71,92.59,19.82z M96.78,16.06c0,0.27,0.27,0.37,0.64,0.37c0.11-0.05,0.11-0.21,0.11-0.37
	c0-0.32-0.05-0.58-0.32-0.58c-0.05,0-0.16,0.05-0.26,0.16S96.78,15.95,96.78,16.06z M97.31,31.21c0,0.32,0.21,0.58,0.48,0.58
	c0.11,0,0.37-0.11,0.37-0.32c0-0.26-0.32-0.58-0.58-0.58c-0.11,0-0.16,0.05-0.21,0.16C97.36,31.11,97.31,31.21,97.31,31.21z
	 M102.13,40.12c0,0.16,0.32,0.32,0.37,0.32c0.42-0.05,0.95-0.21,0.9-0.37c-0.05-0.16-0.37-0.26-0.74-0.26
	C102.24,39.85,102.13,39.96,102.13,40.12z M116.07,41.71h-0.9c-0.32,0-0.69-0.26-0.69-0.74c0-0.58,0.74-1.96,0.74-2.92
	c0-0.9,0.95-1.64,1.06-1.64c0.27,0,0.74,0.37,1.06,0.37c0.11,0,0.48-0.58,0.48-0.58c0-0.53-2.07-0.11-2.07-2.12
	c0-0.58,0.11-0.64,0.11-0.9c0-0.79-0.32-1.59-0.32-1.8v-1.32c0-0.27,0.11-1.06,0.11-1.59c0-0.64-0.11-1.01-0.11-2.01
	c0.05-1.06-0.05-2.23,0.42-2.81c0.48-0.53,1.06-0.58,1.06-1.11c0-0.11-0.16-0.16-0.27-0.16c-0.16,0-0.37,0.11-0.58,0.11
	c-0.64,0-0.74-1.06-0.74-1.43c0-0.26,0.05-0.58,0.05-1.01c0-2.17,0.42-2.28,0.42-2.76c0-0.58-0.26-1.11-0.26-1.38
	c0-0.95-0.11-1.27-0.11-1.96c0-0.26,0.05-0.64,0.05-0.95c0-2.49-1.22-3.5-1.22-4.08c0-0.53,0.58-0.64,1.06-0.64
	c0.85,0,1.43,0.42,2.17,0.42c0.42,0,0.85,0.16,1.33,0.16c0.85,0,3.34-0.58,4.56-0.58c0.32,0,0.53,0.16,0.53,0.48
	c0,0.58-0.64,0.85-1.06,3.13c-0.11,0.42-0.64,0.42-0.64,0.53c0,0.42,0.9,0.42,0.9,1.38c0,1.96-0.21,2.33-0.95,2.33
	c-0.21,0-0.32,0-0.32,0.27c0,0.69,1.27,0.9,1.27,2.01c0,0.79,0,2.86-0.58,2.86s-0.11,0.85-0.79,1.17c0,0-1.17,1.06-1.17,1.38
	c0,0.16,0.42,0.48,0.48,0.48c0.32,0,1.06-0.69,1.8-0.69c0.05,0,0.11,0.37,0.11,0.48c0,0.53-1.48,1.06-1.48,1.85
	c0,0.16,0,0.26,0.05,0.26c0.26-0.05,0.53-0.26,0.79-0.26c0.42,0,0.53,0.16,0.53,0.69c0,1.38-0.32,2.17-0.32,2.7
	c0,0.48,0.79,0.9,0.79,1.38c0,0.32-0.21,0.95-0.21,1.8c-0.11,0.42-0.32,0.58-0.64,0.58c-0.42,0-1.27-0.32-1.59-0.32
	c-0.11,0-0.21,0.05-0.21,0.11c0,0.79,2.7,0.69,2.7,2.12c0,0.48-0.26,1.06-0.26,1.64c0,0.16,0.42,1.06,0.58,1.54
	c0.11,0.42,0.85,0.58,4.29,0.58c0.42,0,1.06-0.26,1.32-0.26h1.32c2.49,0,3.92-2.01,4.35-2.01c0.26,0,0.53,0.11,0.53,0.37
	c0,0.21-0.05,0.48-0.32,0.85c-0.48,0.9-0.95,1.8-0.95,2.81c0,0.37,0.05,0.74,0.05,1.01c0,0.21-0.16,0.37-0.37,0.37
	c-1.11,0-2.97-0.42-4.4-0.42c-1.91,0-2.81,0.26-3.23,0.26c-0.64,0-0.74-0.26-1.17-0.26c-0.48,0-1.06,0.21-1.27,0.21
	c-0.16,0-2.28-0.26-2.81-0.26c-0.27,0-0.79-0.16-1.17-0.16C119.62,41.28,117.18,41.71,116.07,41.71z M116.49,19.82
	c0,0.21,0.16,0.32,0.42,0.32c0.37,0,0.58-0.32,0.58-0.53s-0.11-0.32-0.32-0.32c-0.11,0-0.27,0.05-0.37,0.11
	C116.55,19.55,116.49,19.71,116.49,19.82z M120.68,16.06c0,0.27,0.27,0.37,0.64,0.37c0.11-0.05,0.11-0.21,0.11-0.37
	c0-0.32-0.05-0.58-0.32-0.58c-0.05,0-0.16,0.05-0.26,0.16S120.68,15.95,120.68,16.06z M121.21,31.21c0,0.32,0.21,0.58,0.48,0.58
	c0.11,0,0.37-0.11,0.37-0.32c0-0.26-0.32-0.58-0.58-0.58c-0.11,0-0.16,0.05-0.21,0.16C121.26,31.11,121.21,31.21,121.21,31.21z
	 M126.03,40.12c0,0.16,0.32,0.32,0.37,0.32c0.42-0.05,0.95-0.21,0.9-0.37c-0.05-0.16-0.37-0.26-0.74-0.26
	C126.14,39.85,126.03,39.96,126.03,40.12z M154.86,11.34c0-0.32,0.21-1.01,0.16-1.01c-0.21,0.05-0.74,0.42-1.01,0.42
	c-0.11,0-1.06-0.58-1.54-0.58c-1.06,0-1.01-0.53-1.8-0.53c-0.11,0-0.85,0.32-0.95,0.32c-1.33,0-3.71,1.27-3.71,2.97
	c0,0.85-0.48,1.32-1.32,1.32c-0.05,0-0.26,0.16-0.26,0.37c0,0.11,0.37,0.64,0.64,0.64h0.32c0.37,0,0.53,0.05,0.53,0.21
	c0,0.26-0.64,0.64-0.64,0.69c0,0.05,0.11,0.32,0.37,0.32c0.32,0,0.48-0.21,0.64-0.21c0,0,1.75,1.22,2.44,2.01
	c-0.05-0.11,0.11,1.01,0.9,1.27c0.11,0.05,0.53,0.16,0.53,0.37l-0.32,0.95c-0.11,0.05-0.53,0.37-0.53,0.9c0,0.05,0,0.16,0.05,0.16
	c0.48,0,1.17-0.95,1.91-0.95c0.32,0,0.53,0.26,0.53,0.58c0,0.37-0.11,0.69-0.11,0.74c0.37-0.11,0.53-0.27,1.11-0.37
	c1.33,0,1.38,1.64,1.96,1.75c0.48,0.11,1.32,0.64,1.32,1.01c0,1.06-1.43,0.21-1.64,0.9c0.21,0.16,0.64,0.48,1.8,0.48
	c1.01,0,1.43,0.16,1.43,0.74c0,0.16,0.11,0.32,0.11,0.58c0,0.48-0.95,1.01-0.95,1.17c0.05,0.21,0.48,0.53,1.01,0.53
	c0.37,0,0.58-0.16,0.79-0.16c-0.11,0,1.7,0.79,1.7,3.5c0,3.6-1.22,2.33-1.22,3.13c0,0.21,0.58,0.58,0.58,0.79
	c0,0.05-0.05,0.21-0.16,0.42c-0.79,1.64-0.74,1.11-1.22,1.8c-0.16,0.21-0.21,0.74-0.85,1.27c-0.79,0.64-3.44,1.8-3.5,1.8
	c-0.21,0-0.69-0.37-0.85-0.37c-0.16,0,0,0.53-0.32,0.79c-0.48,0.37-1.64,0.64-3.18,0.64c-2.28,0-2.44-0.37-2.76-0.37
	c-0.11,0-0.21,0.05-0.32,0.05h-0.21c-0.42,0-0.74-0.16-1.22-0.21c-0.58-0.05-3.18-0.85-3.39-1.17c-0.74-1.17-3.44-2.49-3.44-4.66
	c0-0.64,2.01-2.6,2.38-2.91c0.05-0.05,0.37-0.26,0.64-0.26c0.42,0,0.69,1.38,0.69,1.8c0,0.48,0.53,1.8,0.79,2.01
	c1.17,0.9,1.43,1.91,1.8,1.91c1.22,0,1.59,1.22,2.6,1.22c0.53,0,1.06,0.21,1.38,0.21c0.69,0,1.22-0.11,1.64-0.11
	c0.21,0,0.64-0.37,0.74-0.58c1.17-0.53,1.85-1.64,1.85-3.5c0-0.42-0.21-0.85-0.21-1.32c0.37,0,0.53-0.9,0.53-0.95
	c-0.85,0-1.22-2.01-1.85-2.65c-1.01-0.9-2.91-2.01-2.91-2.38c0-0.27,0.79,0.11,0.79-0.53c0-0.16-0.11-0.32-0.69-0.42
	c-0.48-0.11-2.28-0.95-2.81-1.54c-0.37-0.37-0.32-1.01-1.38-1.64c-0.79-0.48-2.91-2.01-3.07-2.91c0.05-0.48,1.38-0.95,1.38-1.22
	c0-0.05-0.74-0.48-0.9-0.48c-0.27,0-0.9,0.32-1.38,0.32c-0.11,0-0.11-0.05-0.53-0.53c-0.69-0.69-1.01-2.12-1.01-3.82
	c0-0.74,1.01-4.35,2.01-4.45l1.17,0.64c0.11-0.11,0.69-0.27,0.69-0.37c0-0.21-1.01-1.01-1.01-1.32c0-0.21,1.91-1.85,3.5-1.85
	c0.42,0,0.53,0.64,0.79,0.64c0.11,0,0.05-0.85,0.16-0.95c0.74-0.69,2.12-0.95,4.61-0.95c2.07,0,4.56,0.9,5.3,1.7
	c0.48,0.48,2.33,0.95,2.33,1.96c0,0.27-0.32,0.74-0.32,0.9c0,0.11,0.05,0.16,0.26,0.16c0.32,0,0.53-0.42,0.69-0.42
	c-0.11,0,0.79,1.01,0.79,1.91c0,1.11-2.33,2.86-3.23,2.86c-0.16,0-0.53-0.37-0.53-0.48c0-0.79-0.05-1.27-0.05-2.17
	c0-0.16-0.37-0.79-0.53-1.11C155.23,12.24,154.86,12.14,154.86,11.34z M140.24,36.94c0,0.32,0.21,0.64,0.37,0.64
	c0.27,0,0.48-0.37,0.48-0.58c0-0.32-0.27-0.64-0.48-0.64C140.29,36.35,140.24,36.88,140.24,36.94z M141.83,14.15
	c0.11,0,0.26,0,0.26-0.26c0-0.27-0.32-0.37-0.48-0.37c-0.05,0-0.21,0-0.26,0.05C141.35,13.78,141.46,14.15,141.83,14.15z
	 M157.67,30.68c0,0.16,0.27,0.42,0.64,0.42c0.32,0,0.53-0.37,0.53-0.64s-0.11-0.32-0.32-0.32c-0.16,0-0.27,0-0.58,0.05
	C157.72,30.37,157.67,30.52,157.67,30.68z M190.53,8.32c0.42,0,0.79,0.05,0.79,0.42c0,0.58-0.32,1.11-0.32,2.17
	c0,0.95,0.26,1.11,0.26,1.59c0,0.21-0.16,0.26-0.16,0.53c0,0.21,0.05,0.32,0.05,0.42c0,0.32-0.9,0.69-0.9,1.33
	c0,0.21,0.16,0.37,0.27,0.37c0.58,0,0.74-0.32,0.95-0.32c0.16,0,0.42,0,0.42,0.27c0,0.26-0.53,0.74-0.53,1.11
	c0,0.05,0.26,0.21,0.32,0.21c0.32,0,0.32-0.16,0.74-0.16c0.11,0,0.11,0.05,0.11,0.11c0,0.11-0.11,0.32-0.11,0.48
	c0,0.37-0.11,0.48-0.11,0.74c0,0.05,0.58,0.79,1.27,3.44c0.05,0.11,0.53,0.9,0.53,0.95c0,0.27-0.05,0.42-0.05,0.53
	c0,0.05,0.32,0.53,0.32,0.79l-0.48,0.58c0,0.32,0.79,0.16,0.9,1.06c0,0.05-0.16,0.11-0.32,0.11h-0.58c-0.37,0-0.53,0.26-0.53,0.42
	c0.11,0.79,0.9,0.48,1.59,0.9c0.42,0.26,0.64,1.01,1.06,2.12c-0.05,0.37-0.21,0.95-0.21,0.95c0.42,0,1.11-0.11,1.43,1.22
	c0.16-0.64,0.58-2.54,1.17-3.66c0.58-1.17,0.69-2.97,1.48-4.24c0.21-0.42,0.69-1.85,0.79-1.85c0.11,0,0.42,0.11,0.58,0.11
	c0.16,0,0.21,0,0.21-0.11c0-0.26-0.64-0.95-0.64-1.32c0-0.95,0.85-2.86,1.22-3.92c0.21-0.48,0.05-0.95,0.32-1.33
	c0.21-0.32,0.79-0.05,0.79-0.53c0-0.58-0.37-0.48-0.37-1.01c0-0.42,0.27-1.27,0.27-1.59v-0.58c0-0.64-0.05-0.85-0.32-1.54
	c-0.05-0.21-0.11-0.37-0.11-0.48c0-0.21,0.11-0.32,0.32-0.32c0.32,0,1.7,0.32,2.17,0.32c0.69,0,2.38-0.32,3.07-0.32
	c0.16,0,0.27,0.11,0.27,0.26c0,0.11-0.05,0.32-0.21,0.48c-0.32,0.37-0.53,0.85-0.64,1.06c-0.79,1.32-0.85,1.85-1.22,3.13
	c-0.9,2.91-2.01,3.23-2.01,3.34c0,0.32,0.53-0.16,0.53,0.95c0,0.58-1.06,1.54-1.22,2.33l-0.37,1.75c-0.26,0.27-0.69,1.17-0.69,1.7
	c-0.26,0-0.74,2.49-1.06,3.23c-0.32,0.64-0.42,0.95-0.42,1.11c0,0.05-0.05,0.11-0.05,0.16c0,1.7-1.33,2.12-1.33,2.54
	c0.05,0.37,0.26,0.53,0.26,0.69c0,0.42-0.85,1.48-0.85,1.85c0,0.05,0.05,0.16,0.05,0.32s-0.58,1.22-0.69,1.48
	c-0.85,1.96-1.06,2.7-1.85,3.44c0,0.37-0.79,2.44-1.17,3.02c-0.16,0.26-0.32,0.9-0.85,0.9c-0.32,0-0.95-0.95-1.17-1.43
	c-0.48-1.01-0.9-1.43-0.95-1.8c-0.05-0.58-0.53-0.95-0.53-1.11c0-0.69,1.11-1.32,1.11-2.17c-0.26,0-0.69,0.27-1.11,0.27
	c-1.06,0-1.59-1.91-1.64-1.91c0-0.32-0.85-1.7-0.95-2.6c-0.11-0.48-0.48-0.42-0.48-1.27c0-0.27,0.11-0.42,0.11-0.64
	c0-0.11-0.11-0.16-0.16-0.32l-0.95-2.07c-0.79-1.75-1.17-2.54-1.17-2.54c0,0.11-1.27,2.49-1.27,2.49c-0.42,0.16-0.95,2.65-1.59,2.81
	c-0.32,0.05-0.9,0.16-0.9,0.58c0.21,0.32,0.42,0.32,0.42,0.53c0,1.06-1.54,3.5-1.7,3.71c-0.32,0.58-1.01,2.44-1.7,3.39
	c-0.32,0.42-0.79,0.74-0.79,0.79c0,0.16,0.05,0.42,0.05,0.69c0,0.11-0.05,0.26-0.11,0.37c-0.16,0.37-1.06,2.17-1.54,2.17
	c-0.9,0-1.43-1.7-1.8-2.38c-1.11-2.07-1.64-2.6-1.64-2.6c0-0.16,0.05-0.21,0.37-0.26c0.37,0,0.9,0.26,1.27,0.26
	c0.21,0,0.42-0.16,0.42-0.37c0,0.05-0.69-0.58-1.48-0.69c-1.17-0.21-1.33-1.38-1.38-1.96l-0.16-0.21c-0.85-1.11-1.32-2.54-1.32-3.02
	c0-0.11,0.16-0.37,0.16-0.85c0,0.05-1.11-0.48-1.11-1.11c0.05-0.11,0.05-0.16,0.05-0.21c0-0.11-0.05-0.11-0.11-0.32
	c-1.38-2.07-1.64-3.82-2.01-4.35c-0.11-0.16-0.48-0.58-0.48-0.85c0-0.05,0-0.11,0.05-0.16c-0.27-0.37-0.32-0.48-0.37-0.85
	c0-0.32,0.27-0.21,0.27-0.48c0-0.58-0.79-1.01-1.06-1.8c-0.32-0.74-0.58-2.17-0.79-2.54c-0.11-0.27-0.27-0.37-0.27-0.48
	c0-0.37,0.48-1.54,0.48-2.38c-0.05,0-0.95,0.69-1.11,0.69c-0.58,0-1.7-2.76-1.7-3.39c0-0.79-1.54-1.85-1.54-2.65
	c0-0.32,0.37-0.79,0.69-0.79c1.22,0,2.49,0.53,4.45,0.53c1.75,0,2.97-0.48,4.82-0.48c0.42,0,0.9,0.26,0.9,0.64
	c0,0.95-0.37,0.53-0.53,1.96c0,1.91,1.01,3.34,1.01,3.97c0,0.95-1.33,1.54-1.33,1.85c0,0.05,0.21,0.05,0.37,0.05
	c0.42,0,1.22-0.16,1.43-0.16c0.26,0,0.48,0.48,0.48,0.58c0,0.69-1.11,0.74-1.11,1.43c0,0.16,0.48,0.32,1.06,0.32h0.9
	c0.74,0,0.9,1.43,0.9,1.85c0,0.53-0.32,0.74-0.32,0.9c0,0.27,0.53,0.16,0.69,0.69c0.16,0.58,0.74,1.96,0.74,2.54
	c0,0.37-0.95,0.48-0.95,0.53c-0.05,0.11,1.48,0.42,1.7,1.06c0.32,1.43,0.9,2.07,0.9,2.38c0,0.32-0.42,0.69-0.42,0.95
	c0,0.11,0.42,0.11,0.64,0.11c0.79,0,0.85,1.01,1.22,1.32c0.16,0,1.43-2.65,2.01-3.66c0.64-1.17,0.79-2.01,1.38-3.18
	c0.21-0.42,0.74-0.16,0.74-1.27c0-0.21,0.74-1.43,0.74-1.54c0-0.32-0.58-1.96-0.58-2.17c0-0.42,0.05-0.74,0.64-0.74
	c0.26,0,0.58,0.05,0.64,0.05c-0.26-0.69-1.75-0.79-1.85-1.59c-0.05-0.32-0.27-0.11-0.64-1.59c0-0.48-0.64-1.11-0.64-1.59
	c0-0.74,1.54-1.17,1.54-1.85c0-0.05-0.11-0.05-0.16-0.05c-0.79,0-0.85,0.53-1.64,0.53c-0.21,0-0.74-1.17-1.38-2.28
	c-0.42-0.64-0.9-1.17-0.9-1.64c0-0.42,0.58-0.53,1.11-0.53c0.37,0,3.39,0.32,4.5,0.32C187.14,8.53,189.58,8.32,190.53,8.32z
	 M167.69,17.33c0,0.16,0.16,0.21,0.42,0.21c0.16,0,0.48,0,0.48-0.26c0-0.16-0.21-0.32-0.37-0.32c-0.21,0-0.32,0.05-0.42,0.16
	C167.74,17.22,167.69,17.28,167.69,17.33z M187.4,22.52c0,0.16,0.16,0.16,0.32,0.16c0.16,0,0.37,0,0.37-0.32
	c0-0.16-0.11-0.32-0.26-0.32c-0.11,0-0.21,0.11-0.32,0.21C187.46,22.36,187.4,22.47,187.4,22.52z M197.84,32.49
	c0,0.21,0.11,0.37,0.32,0.37c0.32,0,0.48-0.32,0.48-0.42c0-0.16-0.21-0.16-0.58-0.16C197.9,32.27,197.84,32.38,197.84,32.49z
	 M225.62,14.04c-0.05,0.16-1.91,1.32-1.91,1.48c0,0.37,0.69,0.11,0.69,0.42c0,0.53-1.96,0.48-1.96,1.17c0,0.05,0.05,0.11,0.11,0.11
	c0.26,0,0.53-0.21,0.79-0.21c0.42,0,0.48,0.37,0.48,0.58c0,0.26-1.06,0.53-1.06,0.74c0,0.11,0.74,0.05,0.79,0.95
	c0,0-0.05,0.42-0.05,0.79c0,0.58,0.11,0.53,0.48,1.27c0.32,0.64,0.79,1.32,1.54,1.64c0.53,0.21,1.48,0.53,2.07,0.53
	c0.37-0.11,0.69-0.53,0.69-0.79c0-0.32-0.37-0.69-0.37-1.17c0-0.9,0.64-1.8,1.96-1.8c1.75,0,2.01,1.06,2.01,2.07
	c0,1.59-1.38,3.23-3.5,3.39c-2.33,0.16-3.29-0.16-4.88-0.85c-0.64-0.27-2.01-1.27-2.33-2.23c0-0.37,0.58-0.95,0.58-1.22
	c0-0.11-0.37-0.11-0.53-0.11c-0.53,0-1.11-1.75-1.11-2.6c0-1.11,0.85-1.85,0.95-2.6c0.32-1.96,1.38-2.7,2.6-3.66
	c0.69-0.53,2.07-1.17,2.76-1.22c0.64,0,2.44-1.01,4.5-1.01c2.23,0,3.76,1.32,3.76,1.38v0.21c0,0.05,0.37,1.32,0.64,1.32
	c0.16,0,0.42-0.74,0.74-0.74c1.38,0,1.48,0.79,2.28,1.7c0.58,0.69,0.95,1.38,1.32,2.33c0.37,0.95,0.64,0.05,0.64,1.48
	c0,0.53-1.11,1.11-1.33,1.11c0,0.16,0,0.58,0.37,0.58c0.16,0,0.42-0.11,0.48-0.11c0.53,0,1.33,0.58,1.33,1.96
	c0,1.01,0.26,0.79,0.26,1.64c0,0.21,0,0.53-0.05,0.9c-0.05,0.69-1.85,0.85-1.85,1.33c0,0,0.37,0.37,0.42,0.37h0.95
	c0.21,0,0.42,0.58,0.42,0.74c0,0.53-1.38,0.27-1.38,0.79c0,0.05-0.11,0.42-0.11,0.69c0,0.11,0.05,0.21,0.11,0.21
	c0.37,0,0.37,0.16,0.58,0.26c0.48,0.21,0.64,0.58,0.64,1.01c0,0.37-0.16,0.85-0.16,1.17c-0.11,0.79-1.01,0.64-1.01,1.01
	c0,0.21,0.16,0.58,0.16,0.69c0,0.79-0.32,1.27-0.42,1.91c-0.21,1.17-1.64,1.85-1.75,2.7c-0.05,0.32-1.91,1.75-1.96,1.91
	c-0.37,0.79-2.6,2.33-5.09,3.13c-0.32,0.11-1.11,0.11-1.17,0.16c-0.69,0.32-1.54,0.69-3.34,0.69c-6.68,0-5.72-1.11-6.89-1.11
	c-0.16,0-0.32,0.11-0.48,0.11c-0.95,0-3.29-1.11-3.29-1.75c0.05-0.21,0.16-0.32,0.16-0.37c0-0.05-0.11-0.11-0.58-0.11h-0.74
	c-0.64,0-1.96-2.01-2.6-2.76s-0.69-1.06-0.69-1.32v-0.32c0-0.42,1.06-0.9,1.06-1.33c0-0.37,0-0.37,0-0.37
	c-0.11,0-0.58,0.21-1.38,0.21c-1.22,0-1.75-2.49-1.75-3.13c0-0.37,0.21-0.53,0.21-0.69c0-0.32-0.42-0.9-0.42-1.17
	c0-0.11,0.11-0.32,0.11-0.53c0-0.53-0.11-1.43-0.11-2.28c0-1.75,0.11-3.76,0.69-4.45c0.69-0.85,2.44-1.01,2.44-1.54
	c0-0.27-0.16-0.37-0.48-0.37c-0.42,0-0.42,0.16-0.79,0.16c-0.58,0-0.69,0.05-0.79,0.05c-0.21,0-0.26-0.21-0.26-0.48
	c0-0.26,0.05-0.53,0.05-0.69c0-0.32,0.05-0.64,0.37-0.9c0.69-1.48,3.5-5.78,4.35-5.78c1.22,0,1.17-0.9,1.75-0.95
	c0.26-0.05,0.79-0.42,0.79-0.74c0-0.05,0.11-0.16,0.11-0.21c0.26-0.64,0.85,0.05,2.07-1.01c0.74-0.69,2.7-0.74,3.87-0.74l1.17-0.21
	c0.21,0,0.26,0,0.26,0h1.38c0.74,0,1.43,0.05,1.43,1.01c-0.05,0.37-0.95,0.64-1.43,0.64c-0.58,0-1.59,0.42-2.01,0.42
	c-0.79,0-2.44,1.7-3.44,2.17l-0.27,0.11c-1.06,0.42-1.48,0.64-1.48,1.06c0,0.32,0.74,0.32,0.74,0.53c0,0.05-0.79,0.85-1.22,1.7
	c-0.16,0.32-0.95,0.42-1.01,0.69c0.27,0.27,0.48,0.9,0.48,0.95c-0.32,1.54-1.11,5.19-1.22,6.73c-0.11,1.06-1.8,1.22-1.8,1.54
	c0,0.16,0.21,0.69,0.64,0.69c0.53,0,0.69-0.26,1.06-0.26c0.11,0,0.37,0.48,0.37,0.58c0,2.12,0.53,2.23,0.53,3.13
	c0,0.58-0.05,0.69-0.05,0.79c0,0.95,0.42,1.59,0.42,2.65c0,0.37-0.79,0.42-0.79,1.11c0,0.27,1.8,0.11,1.8,1.43
	c0,0.05-0.11,0.05-0.11,0.21c0,0.05,0,0.16,0.05,0.26c0.64,1.75,1.06,0.9,1.59,2.33c0.37,0.9,1.48,1.01,2.6,1.38
	c0.95,0.32,1.11,1.32,1.43,1.32c0.11,0,0.27-0.16,0.53-0.26c1.06-0.37,1.85,0.05,3.55-0.9c2.17-1.22,2.92-2.38,3.29-2.6
	c1.01-0.53,1.86-0.26,1.86-1.11c-0.05-0.16-0.27-0.16-0.48-0.16h-0.42c-0.32,0-0.48-0.05-0.48-0.21c0-0.64,1.38-2.92,1.38-3.5
	c0-0.21,0.64-1.38,0.64-2.44c0-0.16-0.05-0.37-0.05-0.85c0-1.33,0.16-2.17,0.16-4.56c0-1.48-0.58-2.97-0.58-4.4
	c0-0.42,0.37-0.42,0.37-0.95c0-0.48-1.01-1.06-1.59-2.65c-0.37-1.27-1.64-1.38-1.64-2.12c0-0.21,0.05-0.42,0.05-0.64
	c0-0.32-0.32-0.48-0.79-0.48c-0.16,0-0.21,0.21-0.42,0.21c-0.64,0-0.79-0.21-1.64-0.16C226.73,13.04,225.72,13.94,225.62,14.04z
	 M215.18,27.08c0,0.21,0.26,0.26,0.48,0.26c0.16,0,0.32-0.05,0.32-0.11c0-0.16-0.32-0.53-0.53-0.53c-0.11,0-0.16,0.05-0.21,0.16
	C215.18,26.92,215.18,27.03,215.18,27.08z M233.83,34.34c0,0.21,0.16,0.42,0.32,0.42c0.21,0,0.32-0.64,0.32-0.79
	c0-0.16-0.05-0.21-0.11-0.21s-0.21,0.11-0.37,0.21C233.89,34.08,233.83,34.18,233.83,34.34z M239.34,20.83
	c0,0.16,0.21,0.27,0.37,0.27s0.48-0.27,0.48-0.53c0-0.16-0.11-0.27-0.21-0.27c-0.11,0-0.16,0.05-0.32,0.16
	C239.5,20.61,239.34,20.72,239.34,20.83z M245.39,41.71c-0.32,0-0.69-0.26-0.69-0.74c0-0.58,0.74-1.96,0.74-2.92
	c0-0.9,0.95-1.64,1.06-1.64c0.26,0,0.74,0.37,1.06,0.37c0.11,0,0.48-0.58,0.48-0.58c0-0.53-2.07-0.11-2.07-2.12
	c0-0.58,0.11-0.64,0.11-0.9c0-0.79-0.32-1.59-0.32-1.8v-1.32c0-0.27,0.11-1.06,0.11-1.59c0-0.64-0.11-1.01-0.11-2.01
	c0.05-1.06-0.05-2.23,0.42-2.81c0.48-0.53,1.06-0.58,1.06-1.11c0-0.11-0.16-0.16-0.26-0.16c-0.16,0-0.37,0.11-0.58,0.11
	c-0.64,0-0.74-1.06-0.74-1.43c0-0.26,0.05-0.58,0.05-1.01c0-2.17,0.42-2.28,0.42-2.76c0-0.58-0.27-1.11-0.27-1.38
	c0-0.95-0.11-1.27-0.11-1.96c0-0.26,0.05-0.64,0.05-0.95c0-2.49-1.22-3.5-1.22-4.08c0-0.53,0.58-0.64,1.06-0.64
	c0.85,0,2.81,0.37,3.55,0.37c0.48,0,2.44-0.42,2.97-0.42c0.11,0,0.42,0.05,0.48,0.11c0-0.05,1.91-0.58,2.86-0.58
	c1.75,0,6.25,0.21,5.99,0.21c2.44,0,5.67,0.64,6.78,2.76c0,0.11-0.53,0.58-0.53,0.9s0.11,0.42,0.26,0.42c0.27,0,0.74-0.32,1.27-0.53
	c0.16,0,0.32,0.16,0.32,0.32c0,0.16-0.64,1.01-1.01,1.38c0.05,0.37,0.11,0.37,0.11,0.37c0.32,0,0.69-0.32,1.01-0.32
	c0.74,0,1.01,0.58,1.01,1.8c0,1.11-0.64,1.11-0.64,1.43c0,0.21,0.37,0.42,0.37,0.74c0,0.21-0.05,0.27-0.37,0.58
	c-0.16,0.11-1.17,0.16-1.17,0.64c0,0.16,0.32,0.21,0.42,0.21c0.48,0,0,0.05,0.53,0.05c0.37,0,0.37,0.27,0.37,0.37
	c-0.95,1.75-1.27,2.7-2.54,3.66c-0.32,0.21-1.11,0.21-1.38,0.37c-0.16,0.11-0.53,0.74-0.64,0.85c-0.21,0.16-0.69,0.11-0.9,0.21
	c-0.85,0.37-2.49,0.74-3.76,0.74c-0.11,0-0.16,0.05-0.16,0.05s4.82,1.8,4.82,2.97c0,0.05,0.58,0.74,0.58,0.69
	c0.16,0,0.79,1.22,0.79,1.54c0,0.69-0.42,1.06-0.42,1.86l0.32,0.21c0.21-0.16,0.37-0.37,0.85-0.42c0.05,0,0.27,0.32,0.32,0.53
	c0.42,0.42,0.53,1.54,0.53,1.59c0,0.32-0.69,0.53-0.69,1.01c0,0.27,1.33,0.27,1.33,0.37c0.26,0.58-0.05,1.22,0.74,1.96
	c0.58,0.48,0.16,1.17,1.38,1.75c0.48,0.26,1.17,1.17,2.6,1.17c0.27,0,0.9,0.21,0.9,0.74c0,0.58-0.16,0.74-0.95,0.79
	c-0.53,0.05-1.38,0.11-1.8,0.11c-0.69,0-1.54-0.05-2.33-0.11c-2.86-0.11-3.87-0.58-5.25-1.8c-0.16-0.11-0.16-0.26-0.16-0.42
	c0-0.21,0.05-0.48,0.05-0.74c0-0.16-0.05-0.26-0.11-0.37c-0.11-0.16-1.01-0.11-1.06-0.27c-0.42-0.9-0.74-1.7-0.9-1.85
	c0-0.21-0.53-1.11-0.53-1.59c0-0.16-1.06-1.27-1.06-1.96c0-0.16,0.37-0.79,0.37-0.85c0-0.53-0.95-0.42-1.11-0.9
	c-0.11-0.48-0.95-1.32-0.95-1.91c0-0.11,0.05-0.48,0.11-0.58c0.16-0.21,0.21-0.32,0.21-0.42c0-0.37-1.22,0-1.54-0.58
	c-0.85-1.38-1.7-1.59-3.02-1.59c-0.53,0-1.75,0-1.75,0.53c0,2.23-0.9,2.23-0.9,2.65c0,0.16,0.11,0.26,0.48,0.26
	c0.05,0,0.16-0.05,0.21-0.05c0.05,0,0.11,0.05,0.11,0.16c0,0.05-0.11,1.11-0.11,1.27c0,0.21,0.21,0.64,0.21,0.69
	c0,0.27-0.21,0.69-0.21,0.95c0.11,0.27,0.11,0.53,0.11,0.95s0,0.9-0.48,1.17c-0.05,0.05-1.01,0.37-1.01,0.79
	c0.32,0,0.64-0.05,1.38-0.05c0.26,0,0.37,1.01,0.37,1.17c0.21,3.18,1.11,3.66,1.11,4.82c0,0.37-0.58,0.42-1.27,0.42
	c-0.79,0-3.13-0.37-3.71-0.37C248.89,41.23,247.3,41.71,245.39,41.71z M246.71,14.52c0,0.21,0.16,0.32,0.42,0.32
	c0.37,0,0.58-0.32,0.58-0.53s-0.11-0.32-0.32-0.32c-0.11,0-0.26,0.05-0.37,0.11C246.77,14.26,246.71,14.41,246.71,14.52z
	 M251.85,22.26c0.27,0,0.64-0.16,0.64-0.53c0-0.37-0.37-0.53-0.64-0.53c-0.26,0-0.79,0.27-0.79,0.42c0,0.11,0,0.21,0.11,0.27
	C251.43,22.26,251.59,22.26,251.85,22.26z M254.56,23.64c0.37,0,0.95,0,1.48-0.11c0.11,0,0.58,0.05,0.95,0.05
	c0.53,0,0.9-0.32,1.38-0.42c2.44,0,3.87-1.85,4.77-4.08c0.26-0.58,0.11-1.06,0.37-1.64c0.16-0.37,0.58-0.64,1.17-1.22
	c-0.95,0-0.95-1.11-0.95-1.22c0-0.64-0.11-1.96-1.33-3.18c-1.59-1.59-2.44-1.75-5.19-1.75c-1.38,0-3.97,0.11-3.97,1.22
	c0,1.7-0.42,1.7-0.42,2.38c0,0.21,0.26,0.37,0.26,0.64c0,0.16-0.11,0.37-0.42,0.64c-0.21,0.16-0.37,0.64-0.64,0.85
	c-0.64,0.42-0.9,0.42-0.9,0.74c0,0.05,0.11,0.11,0.26,0.11c0.58,0,1.01-0.42,1.64-0.42c0.21,0,0.21,0.37,0.21,0.53
	c0,0.79-1.75,0.58-1.75,1.11c0,0.11,0.11,0.11,0.21,0.11c0.32,0,0.74,0.42,1.06,0.42c0.37,0,0.42,0.48,0.42,1.01v0.79
	c0,1.17-0.05,1.96-0.05,2.97c0,0.05,0.16,0.21,0.21,0.26C253.76,23.64,254.19,23.64,254.56,23.64z M269.02,14.94
	c0.21,0,0.37-0.11,0.37-0.26c0-0.16-0.16-0.27-0.32-0.27c-0.21,0-0.37,0.16-0.37,0.37C268.76,14.89,268.86,14.94,269.02,14.94z
	 M305.01,40.7c0,0.37,0.05,0.95,0.05,1.48c0,0.64-0.05,1.22-0.48,1.22c-0.64,0-1.43-0.58-2.17-1.27c-0.74-0.69-1.06-0.9-2.07-2.01
	c-0.79-0.85-2.6-2.28-2.6-3.02c0-0.37,1.22-1.43,1.22-1.85c0-0.11-0.42-0.11-0.64-0.11c-0.48,0-1.38,1.01-1.96,1.01
	c-0.16,0-0.48-0.48-0.48-0.53c0-0.21,1.01-1.17,1.01-1.33c0-0.26-0.05-0.32-0.26-0.32c-0.64,0-1.86-0.53-1.91-0.53
	c-0.85,0-2.7-2.28-3.29-3.23c-0.21,0-0.79-0.48-0.79-0.95c0-0.21,1.96-0.37,1.96-0.9c0-0.16-0.79-0.32-1.17-0.37l-1.27,0.11
	c-0.48,0-0.9-0.21-0.95-0.42c0,0,1.75-0.37,1.75-0.58c0-0.69-2.91-0.58-2.97-0.64c-0.37-0.37-0.42-0.58-0.58-0.74
	c-0.64-0.64-1.54-1.32-1.54-1.7c0-0.27,0.79-0.85,0.79-1.01c0-0.21-0.11-0.27-0.27-0.27c-0.32,0-0.9,0.27-1.32,0.27
	c-0.16,0-0.32-0.05-0.42-0.21c-1.59-1.7-2.44-2.97-2.86-3.34c0,0,0.16,0.74,0,1.38c0,0.32-0.95,0-0.95,0.37
	c0,0.27,0.64,0.37,0.64,0.37c0.21,0.05,0.42,0.11,0.42,1.7c0,0.42-0.42,0.58-0.42,0.79c0,0.26,0.37,0.21,0.37,1.27
	c0.05,2.54-0.74,1.59-0.74,2.44c0,0.53,0.74,0.53,0.74,0.85c0.05,1.85-0.37,1.64-0.37,2.17c0.11,0.53,0.53,0.64,0.53,1.01
	c0,0.58,0.27,1.85,0.16,2.81c-0.05,0.58,0.05,1.54,0.05,2.33c0,0.69-0.58,0.74-0.58,1.22c0,0.58,0.79,0.16,0.85,0.58
	c0.05,0.05-0.05,0.48-0.05,0.53c0.27,0.79,0.53,1.27,0.53,1.75c0,0.26,0,0.48-0.64,0.48c-0.32-0.05-1.7-0.37-2.6-0.37
	c-0.53,0-1.01,0.37-1.64,0.37c-0.27,0-0.53,0-0.53-0.37s0.64-2.12,0.64-2.86c0.16-0.58,0.95-1.11,0.95-1.27
	c-0.05-0.32-0.64-0.42-0.64-1.59c0-1.64,0.37-1.86,0.37-2.86c0-0.69-0.21-1.96-0.21-2.38c0-0.58,0.21-1.27,0.21-1.8
	c0-1.64-0.05-1.64-0.05-2.28c0-0.48,0.05-1.54,0.05-2.38c0-2.49,0.26-2.76,0.26-4.98c0-0.32-0.26-0.58-0.26-1.06
	c0-1.59,0.26-0.64,0.26-1.85c0-0.58,1.33-1.06,1.33-1.06c0-0.58-0.9-0.53-1.22-0.85c-0.11-0.11-0.16-0.53-0.16-1.11
	c0-1.17,0.16-3.02,0.16-4.19c0-0.74,0.16-1.75,0.74-1.75c0.53,0,2.23,0.9,2.92,1.91c0.32,0.48,0.26,1.38,0.58,1.8
	c0.05,0.05,0.16,0.11,0.26,0.11c0.21,0,0.48-0.16,0.69-0.16c0.11,0,0.21,0.05,0.27,0.11c1.59,1.8,1.91,2.28,1.91,2.38
	c0.11,0.16,0.32,0.42,0.32,0.74c0,0.27-0.48,0.74-0.79,0.74c-0.79,0-1.06,0.27-1.06,0.42c0,0.21,0.42,0.42,0.95,0.42
	c0.21,0,0.37,0,0.58-0.11c0.48,0,0.9-0.32,1.48-0.32c0.16,0,0.16,1.06,0.16,1.38c0,0.11,0.11,0.16,0.26,0.16
	c0.21,0,0.42-0.05,0.58-0.05c0.64,0,2.23,2.01,2.54,2.38c0.37,0.48,1.91,1.54,2.17,2.49c0.21,1.22,0.9,0.69,2.44,2.76
	c1.22,1.59,1.48,1.43,1.7,2.12c0.05,0.11,0.64,0.74,0.64,0.85c0,0.53-0.74,1.22-0.74,1.33c0,0.21,0.21,0.32,0.58,0.32
	c0.16,0,0.32,0,0.53-0.05c0.11,0,0.27-0.42,0.37-0.42c0.64,0,1.43,0.58,2.7,2.44c0.21-0.11,0.26-0.37,0.26-0.58
	c0-0.37-0.16-0.79-0.16-1.11c0-0.26,0.05-0.58,0.05-0.85c0-0.85-0.11-1.33-0.11-1.96c0-0.53-0.11-0.95,0.11-1.22
	c0.16-0.16,0.27-0.37,0.27-0.64c0-0.53-0.32-1.22-0.32-2.54c0-0.48,0.42-1.01,0.42-1.43c0-0.42-0.48-0.85-0.48-0.95
	c0-0.9,0.16-2.54,0.16-2.81c0.05-0.32,0.69-0.48,0.69-0.9c0-0.48-0.69,0.05-0.69-0.64c0-0.48-0.11-0.58-0.11-1.7
	c0-0.42-0.11-0.11-0.16-1.64c-0.11-1.75-0.74-2.33-0.74-2.86c0-0.21,0.16-0.37,0.42-0.37c0.05,0,0.16,0.05,0.21,0.05
	c0.64,0.16,0.9,0.16,1.22,0.16s2.38-0.26,2.7-0.26c0.16,0,0.48,0,0.48,0.37c0,0.37-0.26,1.01-0.48,1.96
	c-0.16,0.79-0.37,1.22-0.37,1.91c0,0.27-0.64,0.64-0.64,0.85c0,0.37,0.69,0.64,0.69,1.01c0,1.48-0.16,3.29-0.21,3.71
	c-0.11,0.48-0.79,1.27-0.79,1.38c0,0.21,0.79,0.74,0.79,2.38v3.66c0,0.58-0.69,1.06-0.69,1.27c0,0.53,0.58,0.58,0.58,1.27
	c0,0.74-0.16,2.33-0.16,2.7c0,0.74,0.05,0.74,0.05,1.43c-0.05,0.32-0.11,1.17-0.48,1.32c-0.32,0.32-0.9,0.42-0.9,0.79
	c0,0.16,0.05,0.21,0.21,0.21s0.26-0.05,0.48-0.05c0.42,0,0.69,0.37,0.69,0.64c0,0.11,0.11,2.17,0.11,3.66c0,0.74,0,1.32-0.11,1.48
	C305.01,40.33,305.01,40.49,305.01,40.7z M280.47,23.21c0.21,0,0.26-0.11,0.42-0.42c0-0.27-0.32-0.9-0.48-0.9
	c-0.11,0-0.37,0.11-0.37,0.53C280.05,23.05,280.42,23.21,280.47,23.21z M303.37,32.01c0,0.26,0.21,0.42,0.53,0.42
	c0.11,0,0.26-0.05,0.26-0.48c0-0.32-0.11-0.37-0.26-0.37C303.69,31.58,303.37,31.74,303.37,32.01z"/>
</svg>
