<?xml version="1.0" encoding="utf-8"?>
<!-- Generator: Adobe Illustrator 25.4.1, SVG Export Plug-In . SVG Version: 6.00 Build 0)  -->
<svg version="1.1" id="Layer_1" xmlns="http://www.w3.org/2000/svg" xmlns:xlink="http://www.w3.org/1999/xlink" x="0px" y="0px"
	 viewBox="0 0 95.1 91.21" style="enable-background:new 0 0 95.1 91.21;" xml:space="preserve">
<style type="text/css">
	.st0{fill:#231F20;}
</style>
<g>
	<path class="st0" d="M95.1,13.23c0,2.73-2.05,4.44-4.4,4.44c-2.35,0-4.41-1.71-4.41-4.44c0-2.73,2.06-4.43,4.41-4.43
		C93.05,8.8,95.1,10.5,95.1,13.23z M86.95,13.23c0,2.33,1.7,3.8,3.74,3.8c2.04,0,3.73-1.47,3.73-3.8c0-2.34-1.69-3.79-3.73-3.79
		C88.66,9.44,86.95,10.89,86.95,13.23z M90.75,10.97c1.17,0,1.51,0.61,1.51,1.24c0,0.6-0.37,1-0.79,1.21l1.02,1.93h-0.78l-0.88-1.72
		H89.9v1.72h-0.64v-4.37H90.75z M89.9,13.02h0.81c0.53,0,0.85-0.34,0.85-0.75c0-0.42-0.22-0.69-0.85-0.69H89.9V13.02z"/>
	<g>
		<path class="st0" d="M45.45,0C21.49,0,1.87,18.47,0,41.95l24.44,10.11c2.07-1.42,4.57-2.24,7.27-2.24c0.24,0,0.48,0.01,0.72,0.02
			L43.3,34.07c0-0.07,0-0.15,0-0.22c0-9.48,7.72-17.2,17.2-17.2c9.48,0,17.2,7.72,17.2,17.2c0,9.48-7.72,17.2-17.2,17.2
			c-0.13,0-0.26,0-0.39-0.01L44.6,62.11c0.01,0.2,0.01,0.41,0.01,0.61c0,7.12-5.79,12.91-12.91,12.91
			c-6.25,0-11.47-4.46-12.66-10.37L1.57,58.03c5.41,19.14,23,33.18,43.88,33.18c25.19,0,45.6-20.42,45.6-45.6
			C91.05,20.42,70.63,0,45.45,0z"/>
		<path class="st0" d="M28.58,69.2l-5.6-2.31c0.99,2.07,2.71,3.8,4.99,4.75c4.93,2.05,10.61-0.29,12.67-5.22
			c0.99-2.39,1-5.02,0.01-7.41c-0.98-2.39-2.84-4.26-5.23-5.25c-2.37-0.99-4.91-0.95-7.14-0.11l5.79,2.39
			c3.64,1.52,5.36,5.69,3.84,9.33C36.39,68.99,32.22,70.71,28.58,69.2z"/>
		<path class="st0" d="M71.96,33.85c0-6.32-5.14-11.46-11.46-11.46s-11.46,5.14-11.46,11.46c0,6.32,5.14,11.46,11.46,11.46
			S71.96,40.17,71.96,33.85z M51.91,33.83c0-4.75,3.86-8.61,8.61-8.61c4.76,0,8.61,3.85,8.61,8.61s-3.85,8.61-8.61,8.61
			C55.76,42.44,51.91,38.59,51.91,33.83z"/>
	</g>
</g>
</svg>
